<svg id="svg" version="1.1" xmlns="http://www.w3.org/2000/svg" xmlns:xlink="http://www.w3.org/1999/xlink" width="400" height="400" viewBox="0, 0, 400,400"><g id="svgg"><path id="path0" d="M373.833 149.300 C 372.777 149.908,371.816 150.818,371.209 151.785 L 370.252 153.310 340.376 153.415 L 310.500 153.521 307.062 154.427 C 265.874 165.283,260.416 220.704,298.751 238.834 C 326.562 251.987,358.560 233.526,362.161 202.250 L 362.381 200.333 366.441 200.351 L 370.500 200.370 371.500 201.917 C 374.734 206.922,382.675 205.583,384.014 199.808 C 384.462 197.877,384.422 155.313,383.971 153.521 C 382.861 149.116,377.806 147.011,373.833 149.300 M379.341 153.585 C 379.983 154.401,380.000 155.013,380.000 176.849 L 380.000 199.274 378.974 200.137 C 377.695 201.214,376.640 201.231,375.435 200.196 L 374.500 199.391 374.410 177.282 C 374.342 160.745,374.419 154.930,374.717 154.213 C 375.485 152.359,378.097 152.004,379.341 153.585 M370.256 165.583 L 370.345 173.667 361.616 173.667 C 352.035 173.667,351.667 173.741,351.667 175.667 C 351.667 177.565,352.052 177.647,361.520 177.744 L 370.167 177.833 370.255 186.917 L 370.344 196.000 347.214 196.000 L 324.084 196.000 323.938 193.224 C 323.413 183.218,311.012 184.042,311.002 194.083 L 311.000 196.000 304.167 196.000 C 300.408 196.000,297.336 195.887,297.338 195.750 C 297.434 190.908,302.095 183.779,307.189 180.685 C 311.360 178.152,314.302 177.682,326.060 177.673 C 335.760 177.666,336.000 177.620,336.000 175.752 C 336.000 173.680,335.926 173.667,324.668 173.667 C 308.627 173.667,302.333 176.258,296.871 185.113 C 281.388 210.218,315.248 236.130,335.460 214.644 C 338.929 210.958,340.469 207.714,341.821 201.250 L 342.013 200.333 350.049 200.333 L 358.086 200.333 357.850 202.733 C 355.584 225.722,332.701 242.552,309.833 238.048 C 271.591 230.515,265.027 178.512,300.167 161.470 C 308.381 157.486,309.198 157.409,342.667 157.459 L 370.167 157.500 370.256 165.583 M33.788 165.417 C 32.735 167.447,26.667 181.451,26.667 181.852 C 26.667 184.024,29.075 183.099,30.178 180.503 L 31.100 178.333 35.397 178.333 L 39.695 178.333 40.653 180.469 C 41.858 183.156,44.000 183.986,44.000 181.765 C 44.000 180.851,37.526 165.850,36.728 164.917 C 35.879 163.923,34.436 164.168,33.788 165.417 M92.917 164.693 C 92.385 165.003,92.333 165.797,92.333 173.690 L 92.333 182.348 93.193 182.739 C 94.778 183.461,95.146 182.841,95.333 179.132 L 95.500 175.833 99.000 175.667 C 104.272 175.416,105.998 174.034,105.999 170.067 C 106.000 167.251,104.665 165.381,102.167 164.700 C 100.491 164.244,93.698 164.238,92.917 164.693 M62.190 166.524 C 61.874 166.840,61.667 167.624,61.667 168.503 C 61.667 169.901,61.624 169.962,60.583 170.062 C 59.625 170.155,59.500 170.282,59.500 171.167 C 59.500 172.051,59.625 172.179,60.583 172.271 L 61.667 172.376 61.669 175.438 C 61.672 181.436,63.918 184.076,67.896 182.759 C 69.511 182.224,69.474 180.214,67.854 180.518 C 65.462 180.967,65.000 180.237,65.000 176.010 L 65.000 172.368 66.750 172.267 C 69.444 172.112,69.480 170.224,66.791 170.067 L 65.082 169.968 64.920 168.282 C 64.709 166.090,63.441 165.273,62.190 166.524 M102.196 167.769 C 104.669 170.644,102.651 173.333,98.022 173.333 L 95.333 173.333 95.333 170.222 C 95.333 166.441,95.202 166.581,98.612 166.720 C 101.177 166.825,101.453 166.905,102.196 167.769 M36.998 171.833 C 37.766 173.667,38.472 175.354,38.566 175.583 C 38.697 175.900,37.967 176.000,35.536 176.000 C 33.774 176.000,32.333 175.883,32.333 175.740 C 32.333 175.597,32.873 174.209,33.532 172.657 C 34.191 171.104,34.871 169.475,35.041 169.037 C 35.436 168.026,35.353 167.908,36.998 171.833 M46.733 170.067 C 46.051 170.749,46.198 179.227,46.917 180.667 C 48.131 183.096,51.740 183.679,53.735 181.768 C 54.587 180.951,54.667 180.932,54.667 181.538 C 54.667 182.907,56.150 183.469,57.143 182.476 C 57.919 181.700,57.919 170.967,57.143 170.190 C 55.486 168.533,54.667 169.799,54.667 174.017 C 54.667 178.143,54.296 179.496,52.980 180.177 C 50.248 181.590,49.333 180.228,49.333 174.748 C 49.333 170.254,49.160 169.667,47.833 169.667 C 47.448 169.667,46.953 169.847,46.733 170.067 M73.833 170.146 C 70.248 171.461,68.828 176.859,71.145 180.360 C 73.552 183.998,79.730 183.720,81.748 179.883 C 84.739 174.196,79.697 167.993,73.833 170.146 M111.597 169.978 C 106.632 171.576,105.824 179.437,110.361 181.997 C 113.039 183.508,118.595 182.786,118.948 180.881 C 119.165 179.707,118.485 179.515,116.376 180.154 C 113.859 180.916,112.338 180.664,111.187 179.296 C 109.664 177.487,109.870 177.363,114.583 177.260 L 118.833 177.167 118.919 175.500 C 119.121 171.591,115.371 168.762,111.597 169.978 M124.833 170.149 C 119.654 172.053,119.840 181.209,125.085 182.603 C 126.002 182.846,126.152 183.025,126.071 183.778 C 125.983 184.589,126.077 184.667,127.134 184.667 C 127.772 184.667,128.376 184.800,128.477 184.962 C 128.820 185.517,127.702 186.054,126.433 185.944 C 125.349 185.849,125.152 185.937,125.064 186.551 C 124.877 187.867,128.309 188.007,129.750 186.742 C 130.863 185.765,130.063 183.667,128.577 183.667 C 127.406 183.667,127.727 183.010,129.073 182.650 C 130.874 182.168,131.333 181.789,131.333 180.782 C 131.333 179.726,130.630 179.496,129.380 180.143 C 126.545 181.608,124.100 179.626,124.216 175.958 C 124.314 172.854,126.259 171.462,129.092 172.468 C 130.555 172.988,130.810 172.999,131.244 172.566 C 133.015 170.795,128.108 168.944,124.833 170.149 M136.230 170.013 C 134.272 170.503,133.667 170.939,133.667 171.856 C 133.667 172.991,134.284 173.139,136.290 172.483 C 139.084 171.569,141.000 172.293,141.000 174.263 C 141.000 174.818,140.669 174.930,138.499 175.114 C 134.277 175.470,132.889 176.377,132.889 178.778 C 132.889 182.404,137.764 184.394,140.203 181.763 C 140.786 181.133,141.000 181.043,141.000 181.428 C 141.000 182.752,142.569 183.384,143.512 182.440 C 144.328 181.625,144.111 173.227,143.240 171.899 C 142.029 170.051,139.161 169.280,136.230 170.013 M149.895 170.131 C 145.244 171.858,146.048 176.129,151.230 177.215 C 153.759 177.746,154.407 178.154,154.266 179.126 C 154.080 180.409,152.644 180.875,150.438 180.368 C 147.467 179.684,146.850 179.715,146.731 180.551 C 146.373 183.061,153.589 183.811,155.897 181.503 C 158.251 179.149,157.104 176.399,153.466 175.678 C 150.593 175.107,150.367 175.019,149.988 174.311 C 149.060 172.577,151.571 171.491,154.192 172.492 C 155.967 173.170,156.667 172.989,156.667 171.852 C 156.667 170.229,152.489 169.167,149.895 170.131 M115.584 172.750 C 115.969 173.162,116.386 173.912,116.511 174.417 L 116.739 175.333 113.536 175.333 C 110.111 175.333,110.005 175.268,110.833 173.667 C 111.776 171.843,114.285 171.359,115.584 172.750 M342.333 174.333 C 341.532 175.134,341.487 175.929,342.186 176.926 C 343.266 178.469,346.000 177.513,346.000 175.592 C 346.000 174.733,344.800 173.667,343.833 173.667 C 343.375 173.667,342.700 173.967,342.333 174.333 M141.000 177.808 C 141.000 180.424,136.868 181.783,135.984 179.457 C 135.354 177.801,136.353 177.056,139.250 177.021 C 140.885 177.001,141.000 177.053,141.000 177.808 M38.020 186.696 C 22.737 188.673,13.451 202.016,15.266 219.388 C 16.549 231.662,22.419 239.681,32.677 243.170 C 44.154 247.074,62.004 242.759,61.999 236.082 C 61.995 231.861,58.815 230.444,54.592 232.783 C 45.292 237.932,33.766 235.960,28.970 228.399 C 24.977 222.104,25.011 208.913,29.036 202.616 C 33.775 195.203,44.629 193.295,54.137 198.203 C 57.532 199.956,58.762 200.006,60.378 198.458 C 66.906 192.203,52.802 184.783,38.020 186.696 M238.445 186.803 C 227.694 188.860,222.167 194.637,222.167 203.815 C 222.167 213.714,226.055 217.067,241.333 220.346 C 251.335 222.493,253.779 223.695,254.639 226.894 C 257.073 235.949,240.934 239.343,227.790 232.541 C 223.548 230.346,220.610 231.974,221.092 236.252 C 221.923 243.629,244.401 247.516,255.462 242.196 C 262.783 238.675,266.414 231.279,264.487 223.820 C 262.815 217.354,258.455 214.717,244.443 211.698 C 234.285 209.510,232.031 208.007,232.007 203.406 C 231.966 195.324,244.358 192.342,255.596 197.732 C 260.403 200.037,263.868 198.005,262.650 193.594 C 261.372 188.964,247.498 185.071,238.445 186.803 M73.585 187.252 C 71.603 188.480,71.667 187.540,71.667 215.751 L 71.667 241.568 72.429 242.701 C 74.335 245.533,79.928 245.183,81.195 242.151 C 81.926 240.401,81.895 190.415,81.161 188.869 C 80.152 186.742,75.879 185.829,73.585 187.252 M96.414 187.108 C 94.399 188.227,94.509 186.700,94.409 215.075 C 94.310 243.242,94.272 242.623,96.144 243.849 C 98.204 245.199,101.669 244.657,102.891 242.793 C 103.456 241.930,103.512 240.577,103.667 223.979 L 103.833 206.095 111.500 220.065 C 119.719 235.041,120.140 235.652,122.419 235.909 C 125.580 236.265,125.200 236.783,134.839 219.000 C 138.467 212.308,141.637 206.614,141.884 206.345 C 142.261 205.935,142.334 208.734,142.335 223.845 C 142.336 244.369,142.233 243.588,145.044 244.345 C 148.007 245.143,150.742 243.923,151.158 241.620 C 151.270 241.004,151.317 228.825,151.264 214.556 L 151.167 188.612 150.078 187.639 C 149.118 186.782,148.740 186.667,146.877 186.667 C 143.216 186.667,143.753 185.923,132.877 206.083 C 127.562 215.938,123.127 223.999,123.023 223.999 C 122.919 223.998,118.860 216.628,114.003 207.620 C 102.994 187.204,103.514 188.100,102.235 187.321 C 100.988 186.560,97.622 186.437,96.414 187.108 M185.050 187.232 C 183.321 188.084,183.040 188.645,171.464 214.335 C 159.323 241.277,159.348 241.208,161.241 243.235 C 162.322 244.392,163.996 244.867,165.800 244.528 C 168.201 244.078,169.019 242.874,172.339 234.913 L 174.112 230.659 187.911 230.746 L 201.709 230.833 203.796 235.667 C 204.944 238.325,206.129 240.970,206.429 241.544 C 208.771 246.014,215.667 245.498,215.667 240.852 C 215.667 239.330,194.401 191.267,192.726 189.005 C 191.049 186.740,187.644 185.954,185.050 187.232 M319.000 191.000 C 319.621 191.621,319.667 192.111,319.667 198.142 L 319.667 204.618 318.781 205.315 C 317.834 206.060,316.954 205.986,315.917 205.076 C 315.399 204.621,315.333 203.840,315.333 198.139 L 315.333 191.715 316.212 191.024 C 317.316 190.155,318.148 190.148,319.000 191.000 M193.119 210.500 C 195.805 216.917,198.002 222.279,198.001 222.417 C 198.001 222.554,193.409 222.667,187.798 222.667 C 178.542 222.667,177.615 222.617,177.802 222.128 C 179.753 217.044,187.838 198.380,188.006 198.571 C 188.132 198.715,190.433 204.083,193.119 210.500 M311.002 202.250 C 311.005 205.931,312.217 208.191,314.820 209.373 C 319.561 211.527,323.974 208.261,323.993 202.583 L 324.000 200.333 330.863 200.333 L 337.725 200.333 337.493 201.750 C 333.915 223.593,300.939 223.456,297.568 201.583 L 297.375 200.333 304.188 200.333 L 311.000 200.333 311.002 202.250 " stroke="none" fill="#f8f8f8" fill-rule="evenodd"></path></g></svg>