<svg width="385.3303642272949" height="113.66216278076172" xmlns="http://www.w3.org/2000/svg" version="1.1">
 <g>
  <title>Layer 1</title>
  <g id="svgg">
   <path id="path0" d="m374.833,18.3c-1.056,0.608 -2.017,1.518 -2.624,2.485l-0.957,1.525l-29.876,0.105l-29.876,0.106l-3.438,0.906c-41.188,10.856 -46.646,66.277 -8.311,84.407c27.811,13.153 59.809,-5.308 63.41,-36.584l0.22,-1.917l4.06,0.018l4.059,0.019l1,1.547c3.234,5.005 11.175,3.666 12.514,-2.109c0.448,-1.931 0.408,-44.495 -0.043,-46.287c-1.11,-4.405 -6.165,-6.51 -10.138,-4.221m5.508,4.285c0.642,0.816 0.659,1.428 0.659,23.264l0,22.425l-1.026,0.863c-1.279,1.077 -2.334,1.094 -3.539,0.059l-0.935,-0.805l-0.09,-22.109c-0.068,-16.537 0.009,-22.352 0.307,-23.069c0.768,-1.854 3.38,-2.209 4.624,-0.628m-9.085,11.998l0.089,8.084l-8.729,0c-9.581,0 -9.949,0.074 -9.949,2c0,1.898 0.385,1.98 9.853,2.077l8.647,0.089l0.088,9.084l0.089,9.083l-23.13,0l-23.13,0l-0.146,-2.776c-0.525,-10.006 -12.926,-9.182 -12.936,0.859l-0.002,1.917l-6.833,0c-3.759,0 -6.831,-0.113 -6.829,-0.25c0.096,-4.842 4.757,-11.971 9.851,-15.065c4.171,-2.533 7.113,-3.003 18.871,-3.012c9.7,-0.007 9.94,-0.053 9.94,-1.921c0,-2.072 -0.074,-2.085 -11.332,-2.085c-16.041,0 -22.335,2.591 -27.797,11.446c-15.483,25.105 18.377,51.017 38.589,29.531c3.469,-3.686 5.009,-6.93 6.361,-13.394l0.192,-0.917l8.036,0l8.037,0l-0.236,2.4c-2.266,22.989 -25.149,39.819 -48.017,35.315c-38.242,-7.533 -44.806,-59.536 -9.666,-76.578c8.214,-3.984 9.031,-4.061 42.5,-4.011l27.5,0.041l0.089,8.083m-336.468,-0.166c-1.053,2.03 -7.121,16.034 -7.121,16.435c0,2.172 2.408,1.247 3.511,-1.349l0.922,-2.17l4.297,0l4.298,0l0.958,2.136c1.205,2.687 3.347,3.517 3.347,1.296c0,-0.914 -6.474,-15.915 -7.272,-16.848c-0.849,-0.994 -2.292,-0.749 -2.94,0.5m59.129,-0.724c-0.532,0.31 -0.584,1.104 -0.584,8.997l0,8.658l0.86,0.391c1.585,0.722 1.953,0.102 2.14,-3.607l0.167,-3.299l3.5,-0.166c5.272,-0.251 6.998,-1.633 6.999,-5.6c0.001,-2.816 -1.334,-4.686 -3.832,-5.367c-1.676,-0.456 -8.469,-0.462 -9.25,-0.007m-30.727,1.831c-0.316,0.316 -0.523,1.1 -0.523,1.979c0,1.398 -0.043,1.459 -1.084,1.559c-0.958,0.093 -1.083,0.22 -1.083,1.105c0,0.884 0.125,1.012 1.083,1.104l1.084,0.105l0.002,3.062c0.003,5.998 2.249,8.638 6.227,7.321c1.615,-0.535 1.578,-2.545 -0.042,-2.241c-2.392,0.449 -2.854,-0.281 -2.854,-4.508l0,-3.642l1.75,-0.101c2.694,-0.155 2.73,-2.043 0.041,-2.2l-1.709,-0.099l-0.162,-1.686c-0.211,-2.192 -1.479,-3.009 -2.73,-1.758m40.006,1.245c2.473,2.875 0.455,5.564 -4.174,5.564l-2.689,0l0,-3.111c0,-3.781 -0.131,-3.641 3.279,-3.502c2.565,0.105 2.841,0.185 3.584,1.049m-65.198,4.064c0.768,1.834 1.474,3.521 1.568,3.75c0.131,0.317 -0.599,0.417 -3.03,0.417c-1.762,0 -3.203,-0.117 -3.203,-0.26c0,-0.143 0.54,-1.531 1.199,-3.083c0.659,-1.553 1.339,-3.182 1.509,-3.62c0.395,-1.011 0.312,-1.129 1.957,2.796m9.735,-1.766c-0.682,0.682 -0.535,9.16 0.184,10.6c1.214,2.429 4.823,3.012 6.818,1.101c0.852,-0.817 0.932,-0.836 0.932,-0.23c0,1.369 1.483,1.931 2.476,0.938c0.776,-0.776 0.776,-11.509 0,-12.286c-1.657,-1.657 -2.476,-0.391 -2.476,3.827c0,4.126 -0.371,5.479 -1.687,6.16c-2.732,1.413 -3.647,0.051 -3.647,-5.429c0,-4.494 -0.173,-5.081 -1.5,-5.081c-0.385,0 -0.88,0.18 -1.1,0.4m27.1,0.079c-3.585,1.315 -5.005,6.713 -2.688,10.214c2.407,3.638 8.585,3.36 10.603,-0.477c2.991,-5.687 -2.051,-11.89 -7.915,-9.737m37.764,-0.168c-4.965,1.598 -5.773,9.459 -1.236,12.019c2.678,1.511 8.234,0.789 8.587,-1.116c0.217,-1.174 -0.463,-1.366 -2.572,-0.727c-2.517,0.762 -4.038,0.51 -5.189,-0.858c-1.523,-1.809 -1.317,-1.933 3.396,-2.036l4.25,-0.093l0.086,-1.667c0.202,-3.909 -3.548,-6.738 -7.322,-5.522m13.236,0.171c-5.179,1.904 -4.993,11.06 0.252,12.454c0.917,0.243 1.067,0.422 0.986,1.175c-0.088,0.811 0.006,0.889 1.063,0.889c0.638,0 1.242,0.133 1.343,0.295c0.343,0.555 -0.775,1.092 -2.044,0.982c-1.084,-0.095 -1.281,-0.007 -1.369,0.607c-0.187,1.316 3.245,1.456 4.686,0.191c1.113,-0.977 0.313,-3.075 -1.173,-3.075c-1.171,0 -0.85,-0.657 0.496,-1.017c1.801,-0.482 2.26,-0.861 2.26,-1.868c0,-1.056 -0.703,-1.286 -1.953,-0.639c-2.835,1.465 -5.28,-0.517 -5.164,-4.185c0.098,-3.104 2.043,-4.496 4.876,-3.49c1.463,0.52 1.718,0.531 2.152,0.098c1.771,-1.771 -3.136,-3.622 -6.411,-2.417m11.397,-0.136c-1.958,0.49 -2.563,0.926 -2.563,1.843c0,1.135 0.617,1.283 2.623,0.627c2.794,-0.914 4.71,-0.19 4.71,1.78c0,0.555 -0.331,0.667 -2.501,0.851c-4.222,0.356 -5.61,1.263 -5.61,3.664c0,3.626 4.875,5.616 7.314,2.985c0.583,-0.63 0.797,-0.72 0.797,-0.335c0,1.324 1.569,1.956 2.512,1.012c0.816,-0.815 0.599,-9.213 -0.272,-10.541c-1.211,-1.848 -4.079,-2.619 -7.01,-1.886m13.665,0.118c-4.651,1.727 -3.847,5.998 1.335,7.084c2.529,0.531 3.177,0.939 3.036,1.911c-0.186,1.283 -1.622,1.749 -3.828,1.242c-2.971,-0.684 -3.588,-0.653 -3.707,0.183c-0.358,2.51 6.858,3.26 9.166,0.952c2.354,-2.354 1.207,-5.104 -2.431,-5.825c-2.873,-0.571 -3.099,-0.659 -3.478,-1.367c-0.928,-1.734 1.583,-2.82 4.204,-1.819c1.775,0.678 2.475,0.497 2.475,-0.64c0,-1.623 -4.178,-2.685 -6.772,-1.721m-34.311,2.619c0.385,0.412 0.802,1.162 0.927,1.667l0.228,0.916l-3.203,0c-3.425,0 -3.531,-0.065 -2.703,-1.666c0.943,-1.824 3.452,-2.308 4.751,-0.917m226.749,1.583c-0.801,0.801 -0.846,1.596 -0.147,2.593c1.08,1.543 3.814,0.587 3.814,-1.334c0,-0.859 -1.2,-1.925 -2.167,-1.925c-0.458,0 -1.133,0.3 -1.5,0.666m-201.333,3.475c0,2.616 -4.132,3.975 -5.016,1.649c-0.63,-1.656 0.369,-2.401 3.266,-2.436c1.635,-0.02 1.75,0.032 1.75,0.787m-102.98,8.888c-15.283,1.977 -24.569,15.32 -22.754,32.692c1.283,12.274 7.153,20.293 17.411,23.782c11.477,3.904 29.327,-0.411 29.322,-7.088c-0.004,-4.221 -3.184,-5.638 -7.407,-3.299c-9.3,5.149 -20.826,3.177 -25.622,-4.384c-3.993,-6.295 -3.959,-19.486 0.066,-25.783c4.739,-7.413 15.593,-9.321 25.101,-4.413c3.395,1.753 4.625,1.803 6.241,0.255c6.528,-6.255 -7.576,-13.675 -22.358,-11.762m200.425,0.107c-10.751,2.057 -16.278,7.834 -16.278,17.012c0,9.899 3.888,13.252 19.166,16.531c10.002,2.147 12.446,3.349 13.306,6.548c2.434,9.055 -13.705,12.449 -26.849,5.647c-4.242,-2.195 -7.18,-0.567 -6.698,3.711c0.831,7.377 23.309,11.264 34.37,5.944c7.321,-3.521 10.952,-10.917 9.025,-18.376c-1.672,-6.466 -6.032,-9.103 -20.044,-12.122c-10.158,-2.188 -12.412,-3.691 -12.436,-8.292c-0.041,-8.082 12.351,-11.064 23.589,-5.674c4.807,2.305 8.272,0.273 7.054,-4.138c-1.278,-4.63 -15.152,-8.523 -24.205,-6.791m-164.86,0.449c-1.982,1.228 -1.918,0.288 -1.918,28.499l0,25.817l0.762,1.133c1.906,2.832 7.499,2.482 8.766,-0.55c0.731,-1.75 0.7,-51.736 -0.034,-53.282c-1.009,-2.127 -5.282,-3.04 -7.576,-1.617m22.829,-0.144c-2.015,1.119 -1.905,-0.408 -2.005,27.967c-0.099,28.167 -0.137,27.548 1.735,28.774c2.06,1.35 5.525,0.808 6.747,-1.056c0.565,-0.863 0.621,-2.216 0.776,-18.814l0.166,-17.884l7.667,13.97c8.219,14.976 8.64,15.587 10.919,15.844c3.161,0.356 2.781,0.874 12.42,-16.909c3.628,-6.692 6.798,-12.386 7.045,-12.655c0.377,-0.41 0.45,2.389 0.451,17.5c0.001,20.524 -0.102,19.743 2.709,20.5c2.963,0.798 5.698,-0.422 6.114,-2.725c0.112,-0.616 0.159,-12.795 0.106,-27.064l-0.097,-25.944l-1.089,-0.973c-0.96,-0.857 -1.338,-0.972 -3.201,-0.972c-3.661,0 -3.124,-0.744 -14,19.416c-5.315,9.855 -9.75,17.916 -9.854,17.916c-0.104,-0.001 -4.163,-7.371 -9.02,-16.379c-11.009,-20.416 -10.489,-19.52 -11.768,-20.299c-1.247,-0.761 -4.613,-0.884 -5.821,-0.213m88.636,0.124c-1.729,0.852 -2.01,1.413 -13.586,27.103c-12.141,26.942 -12.116,26.873 -10.223,28.9c1.081,1.157 2.755,1.632 4.559,1.293c2.401,-0.45 3.219,-1.654 6.539,-9.615l1.773,-4.254l13.799,0.087l13.798,0.087l2.087,4.834c1.148,2.658 2.333,5.303 2.633,5.877c2.342,4.47 9.238,3.954 9.238,-0.692c0,-1.522 -21.266,-49.585 -22.941,-51.847c-1.677,-2.265 -5.082,-3.051 -7.676,-1.773m133.95,3.768c0.621,0.621 0.667,1.111 0.667,7.142l0,6.476l-0.886,0.697c-0.947,0.745 -1.827,0.671 -2.864,-0.239c-0.518,-0.455 -0.584,-1.236 -0.584,-6.937l0,-6.424l0.879,-0.691c1.104,-0.869 1.936,-0.876 2.788,-0.024m-125.881,19.5c2.686,6.417 4.883,11.779 4.882,11.917c0,0.137 -4.592,0.25 -10.203,0.25c-9.256,0 -10.183,-0.05 -9.996,-0.539c1.951,-5.084 10.036,-23.748 10.204,-23.557c0.126,0.144 2.427,5.512 5.113,11.929m117.883,-8.25c0.003,3.681 1.215,5.941 3.818,7.123c4.741,2.154 9.154,-1.112 9.173,-6.79l0.007,-2.25l6.863,0l6.862,0l-0.232,1.417c-3.578,21.843 -36.554,21.706 -39.925,-0.167l-0.193,-1.25l6.813,0l6.812,0l0.002,1.917" fill="#f8f8f8" fill-rule="evenodd"/>
  </g>
 </g>

</svg>